<svg width="32" height="32" viewBox="0 0 32 32" fill="none" xmlns="http://www.w3.org/2000/svg">
<path d="M15.2883 8.92521L17.7633 6.45021C18.8112 5.49511 20.1868 4.9805 21.6042 5.01332C23.0217 5.04613 24.372 5.62385 25.3746 6.62642C26.3771 7.62898 26.9549 8.97929 26.9877 10.3968C27.0205 11.8142 26.5059 13.1898 25.5508 14.2377L22.0133 17.7627C21.5035 18.2744 20.8976 18.6805 20.2305 18.9575C19.5634 19.2346 18.8481 19.3772 18.1258 19.3772C17.4034 19.3772 16.6882 19.2346 16.0211 18.9575C15.354 18.6805 14.7481 18.2744 14.2383 17.7627" stroke="black" stroke-width="2" stroke-linecap="round" stroke-linejoin="round"/>
<path d="M16.7126 23.0732L14.2376 25.5482C13.1897 26.5033 11.8141 27.0179 10.3966 26.9851C8.97917 26.9523 7.62886 26.3746 6.62629 25.372C5.62373 24.3695 5.04601 23.0191 5.0132 21.6017C4.98038 20.1842 5.49499 18.8086 6.45008 17.7607L9.98759 14.2357C10.4974 13.724 11.1033 13.318 11.7704 13.0409C12.4375 12.7638 13.1527 12.6212 13.8751 12.6212C14.5974 12.6212 15.3127 12.7638 15.9798 13.0409C16.6469 13.318 17.2528 13.724 17.7626 14.2357" stroke="black" stroke-width="2" stroke-linecap="round" stroke-linejoin="round"/>
</svg>
