<svg width="32" height="32" viewBox="0 0 32 32" fill="none" xmlns="http://www.w3.org/2000/svg">
<path d="M10.9628 11.6837L14.1463 26.815C14.182 26.9773 14.1761 27.146 14.1293 27.3054C14.0825 27.4649 13.9962 27.61 13.8783 27.7272L12.7207 28.9032C12.6086 29.0177 12.4707 29.1035 12.3186 29.1536C12.1664 29.2036 12.0045 29.2164 11.8464 29.1908C11.6883 29.1653 11.5386 29.1021 11.41 29.0066C11.2814 28.9112 11.1776 28.7862 11.1074 28.6423L8.12877 22.4989" stroke="black" stroke-width="2" stroke-linecap="round" stroke-linejoin="round"/>
<path d="M8.12914 22.4981C6.83146 22.7711 5.47848 22.5174 4.36784 21.7929C3.25719 21.0684 2.47986 19.9323 2.20685 18.6346C1.93383 17.3369 2.1875 15.984 2.91204 14.8733C3.63659 13.7627 4.77266 12.9853 6.07033 12.7123L10.9632 11.6829C10.9632 11.6829 17.6298 10.2804 22.9097 3.56191C23.0274 3.41394 23.1847 3.30239 23.3633 3.2402C23.5419 3.17801 23.7344 3.16773 23.9186 3.21055C24.1028 3.25337 24.2711 3.34754 24.4039 3.48213C24.5367 3.61672 24.6287 3.78621 24.6691 3.97095L28.6735 23.0043C28.7109 23.1896 28.6951 23.3818 28.6277 23.5585C28.5604 23.7352 28.4443 23.8892 28.293 24.0026C28.1417 24.116 27.9613 24.1842 27.7728 24.1992C27.5843 24.2143 27.3954 24.1755 27.228 24.0876C19.6886 20.0661 13.022 21.4687 13.022 21.4687L8.12914 22.4981Z" stroke="black" stroke-width="2" stroke-linecap="round" stroke-linejoin="round"/>
</svg>
